<?xml version="1.0" encoding="utf-8"?>
<!-- Generator: Adobe Illustrator 21.0.0, SVG Export Plug-In . SVG Version: 6.00 Build 0)  -->
<svg version="1.1" id="Layer_1" xmlns="http://www.w3.org/2000/svg" xmlns:xlink="http://www.w3.org/1999/xlink" x="0px" y="0px"
	 viewBox="0 0 512 512" style="enable-background:new 0 0 512 512;" xml:space="preserve">
<g>
	<path d="M391.1,202.2l-119.8-79.7v71.2l66.3,44.2L391.1,202.2z M256,220.2l-54.1,36.1l54.1,36.1l54.1-36.1L256,220.2z M271.3,318.9
		v71.2l119.8-79.7l-53.5-35.7L271.3,318.9z M174.4,274.7l-53.5,35.7l119.8,79.7v-71.2L174.4,274.7z M491.5,0h-471
		C9.2,0,0,9.2,0,20.5v471C0,502.8,9.2,512,20.5,512h471c11.3,0,20.5-9.2,20.5-20.5v-471C512,9.2,502.8,0,491.5,0z M433.9,310.4
		c0,0.7-0.1,1.3-0.1,2c0,0.3-0.1,0.4-0.1,0.6c-0.1,0.7-0.3,1.4-0.5,2c-0.1,0.4-0.3,0.8-0.4,1.1c-0.1,0.3-0.3,0.5-0.3,0.8
		c-0.2,0.3-0.3,0.7-0.5,1c-0.1,0.3-0.3,0.4-0.4,0.7c-0.2,0.3-0.4,0.6-0.6,1c-0.2,0.3-0.3,0.4-0.5,0.6c-0.3,0.3-0.5,0.6-0.8,0.8
		c-0.2,0.2-0.4,0.4-0.6,0.6c-0.3,0.3-0.6,0.5-0.9,0.7c-0.3,0.2-0.4,0.4-0.7,0.5c-0.1,0.1-0.2,0.1-0.3,0.2L264.4,431.4
		c-2.6,1.7-5.5,2.6-8.4,2.6c-3,0-6-0.9-8.5-2.6L84.9,323.1c-0.1-0.1-0.2-0.1-0.3-0.2l-0.7-0.5c-0.3-0.3-0.6-0.4-0.8-0.7
		c-0.2-0.2-0.4-0.4-0.6-0.6c-0.3-0.3-0.5-0.5-0.8-0.8c-0.2-0.2-0.4-0.4-0.5-0.6c-0.3-0.3-0.4-0.6-0.6-1c-0.1-0.3-0.3-0.4-0.4-0.7
		c-0.2-0.3-0.4-0.7-0.5-1c-0.1-0.3-0.3-0.5-0.3-0.8c-0.1-0.4-0.3-0.8-0.4-1.1c-0.1-0.3-0.2-0.5-0.3-0.8c-0.1-0.4-0.2-0.8-0.3-1.3
		c-0.1-0.2-0.1-0.4-0.1-0.6c-0.1-0.6-0.1-1.3-0.1-2V202.2c0-0.6,0.1-1.3,0.1-2c0.1-0.2,0.1-0.4,0.1-0.6c0.1-0.7,0.3-1.4,0.5-2
		c0.1-0.4,0.3-0.8,0.4-1.1c0.1-0.3,0.3-0.5,0.3-0.8c0.1-0.3,0.3-0.7,0.5-1c0.1-0.3,0.3-0.4,0.4-0.7c0.4-0.6,0.8-1.1,1.2-1.6
		c0.3-0.3,0.5-0.6,0.8-0.8c0.2-0.2,0.4-0.4,0.6-0.6c0.3-0.3,0.6-0.5,0.8-0.7c0.3-0.2,0.4-0.4,0.7-0.5c0.1-0.1,0.2-0.1,0.3-0.2
		L247.5,81.3c5.1-3.4,11.8-3.4,17,0l162.6,108.2c0.1,0.1,0.2,0.1,0.3,0.2l0.7,0.5l0.9,0.7c0.2,0.2,0.4,0.4,0.6,0.6
		c0.3,0.3,0.5,0.5,0.8,0.8c0.4,0.5,0.8,1,1.2,1.6c0.1,0.3,0.3,0.4,0.4,0.7c0.2,0.3,0.4,0.6,0.5,1c0.1,0.3,0.3,0.5,0.3,0.8
		c0.1,0.4,0.3,0.8,0.4,1.1c0.1,0.3,0.2,0.5,0.3,0.8c0.1,0.4,0.2,0.8,0.3,1.3c0.1,0.2,0.1,0.4,0.1,0.6c0.1,0.6,0.1,1.3,0.1,2V310.4z
		 M403.3,281.9v-51.1l-38.3,25.5L403.3,281.9z M108.7,230.8v51.1l38.3-25.5L108.7,230.8z M240.7,193.7v-71.2l-119.8,79.7l53.5,35.7
		L240.7,193.7z"/>
</g>
</svg>
